/* XPM */
static char *_9f5bf564ca84443ab6e2f76dee15825VE0bMF0wiJcYVHtS[] = {
/* columns rows colors chars-per-pixel */
"64 64 18 1 ",
"  c None",
". c #5BB531",
"X c #6AB93C",
"o c #78BE48",
"O c #84C255",
"+ c #90C761",
"@ c #9CCC6F",
"# c #A6D07C",
"$ c #B1D58A",
"% c #BADA97",
"& c #C3DFA5",
"* c #CDE4B3",
"= c #D5E8C1",
"- c #DEEDCE",
"; c #E7F2DB",
": c #EFF6E8",
"> c #F8FBF4",
", c white",
/* pixels */
"                          ............                          ",
"                      ....................                      ",
"                    ........................                    ",
"                 ..............................                 ",
"                ................................                ",
"              ....................................              ",
"             ......................................             ",
"           ..........................................           ",
"          .......................#@...................          ",
"         ......................+-,,#...................         ",
"        .....................O-,,,,,#...................        ",
"       ....................o*,,,,,,,,*......X=@..........       ",
"       ..................X%,,,,,,,,,,,*....X;,*..........       ",
"      ..................%>,,,,,,,,,,,,,*...-,,-...........      ",
"     .................#:,,,,,,,,,,,,,,,,;X*,,,-............     ",
"    ................+;,,,,,,,,,,,,,,,,,,,>,,,,-.............    ",
"    ..............o-,,,,,,,,,,,,,,,,,,,,,,,,,,*.............    ",
"   .............o*,,,,,,,,,,,,,,,,,,,,,,,,,,,,%..............   ",
"   ...........X%>,,,,,,,,,,,,,,>&>,,,,,,,,,,,,%..............   ",
"  ...........O;,,,,,,,,,,,,,,,&X.X;,,,,,,,,,,,%...............  ",
"  ...........$,,,,,,,,,,,,,,*o....X-,,,,,,,,,,%...............  ",
"  ............*,,,,,,,,,,,-o.......X>,,,,,,,,,%...............  ",
" ..............;,,,,,,,,-+.........=,,,,,,,,,,%..O+%+.......... ",
" ..............X>,,,,,:@..........*,,,,,,,,,,,:>,,,,=.......... ",
" ...............+,,,:#...........&,,,,,,,,,,,,,,,,,,-.......... ",
" .............X%>,,>o...........@,,,,,,,;-%%$,,,,,,,-.......... ",
".............#:,,,,,-...........o=&%#+X.....+,,,,,,,-...........",
"...........@:,,,,,,,,*......................%,,,,,,,*...........",
".........+-,,,,,,,,,,,#.....................%,,,,,,,%...........",
".......X=,,,,,,,,,,,,,,O....................%,,,,,,,%...........",
".......=,,,,,,,,,,,,,,,>X...................%,,,,,,,%...........",
".......O&-,,,,,,,,,,,,,,;...................%,,,,,,,%...........",
"...........+$,,,,,,,,,,,,&..................%,,,,,,,%...........",
"............o,,,,,,,,,,,,,+.................%,,,,,,,%...........",
"............#,,,,,,,;*-,,,-.................%,,,,,,,%...........",
"............*,,,,,,,%...O#O..........+......%,,,,,,,%...........",
"............;,,,,,,,@...............*,O.....%,,,,,,,%...........",
"...........X,,,,,,,,o..............o,,&.....*,,,,,,,%...........",
"...........@,,,,,,,,...............%,,:.....-,,,,,,,%...........",
" ..........&,,,,,,,,-o.............>,,,O...o;,,,,,,,%.......... ",
" ..........-,,,,,,,,,,%...........#,,,,&X#;,,,,,,,,,@.......... ",
" ..........,,,,,,,,,,,,:+.........-,,,,>,,,,,,,,,,,,+.......... ",
"  ........O,,,,,,,,,,,,,,*X......O,,,,,,,,,,,,,,,,,,+.........  ",
"  .........&,,,,,,,,,,,,,,>$.....*,,,,,,,,,,,,,,,,,,+.........  ",
"  ..........O-,,,,,,,,,,,,,,-O..X>,,,,,,,,,,,,,,,,,,+.........  ",
"   ...........$>,,,,,,,,,,,,,,%X$,,,,,,,,,,,,,,,,,,>O........   ",
"   ............X*,,,,,,,,,,,,,,::,,,,,,,,,,,,,,,:&@..........   ",
"    .............+;,,,,,,,,,,,,,,,,,,,,,,,,,,;$O............    ",
"    ...............$>,,,,,,,,,,,,,,,,,,,,,=#o...............    ",
"     ...............X*,,,,,,,,,,:%,,,,,,,,@................     ",
"      ................+;,,,,,,,,$.o-,,,,,,&...............      ",
"      ..................$>,,,,,>X...@>,,,,:...............      ",
"       ..................o=,,,,*.....X&,,,,O.............       ",
"        ...................+:,,o.......+;,,%............        ",
"         ....................#%..........#;@...........         ",
"          ............................................          ",
"           ..........................................           ",
"            ........................................            ",
"             ......................................             ",
"               ..................................               ",
"                 ..............................                 ",
"                   ..........................                   ",
"                     ......................                     ",
"                         ..............                         "
};
