/* XPM */
static char *b096ba53805f41c281284ff5a9233b7dMI2XABw6bohZXo5O[] = {
/* columns rows colors chars-per-pixel */
"32 32 18 1 ",
"  c None",
". c #5BB531",
"X c #6AB93C",
"o c #78BE48",
"O c #84C255",
"+ c #90C761",
"@ c #9CCC6F",
"# c #A6D07C",
"$ c #B1D58A",
"% c #BADA97",
"& c #C3DFA5",
"* c #CDE4B3",
"= c #D5E8C1",
"- c #DEEDCE",
"; c #E7F2DB",
": c #EFF6E8",
"> c #F8FBF4",
", c white",
/* pixels */
"            ........            ",
"         ..............         ",
"       ..................       ",
"      ....................      ",
"     ..........o*&.........     ",
"    .........X%,,,*...@o....    ",
"   .........%>,,,,,*.@,$.....   ",
"  ........#:,,,,,,,,;>,%......  ",
"  ......+;,,,,,,,,,,,,,@......  ",
" .....X-,,,,,,,-%,,,,,,+....... ",
" .....O>,,,,,;+..#,,,,,+....... ",
".......@,,,:#....*,,,,,**-@.....",
".......+:,%.....&,,,,->,,,%.....",
".....o*,,,=.....@@+X..-,,,$.....",
"...X&,,,,,,%..........-,,,+.....",
"...@>,,,,,,,@.........-,,,+.....",
".....o=,,,,,>o........-,,,+.....",
"......;,,,&%-@....o...-,,,+.....",
".....X,,,,O......X>@..;,,,+.....",
".....@,,,,@......$,*.X,,,,+.....",
".....%,,,,,=o....:,>=,,,,,+.....",
" ....&,,,,,,>%..@,,,,,,,,,+.... ",
" .....@>,,,,,,;+=,,,,,,,,,+.... ",
"  .....X&,,,,,,,,,,,,,,-$o....  ",
"  .......O-,,,,,>,,,,%X.......  ",
"   ........#>,,,O@:,,$.......   ",
"    ........X&,-..X&,-......    ",
"     .........oO....o#.....     ",
"      ....................      ",
"       ..................       ",
"         ..............         ",
"           ..........           "
};
