/* XPM */
static char *b3c752fb100f4faa9a359a0132934565D8RLtOgBlKKcPXQJ[] = {
/* columns rows colors chars-per-pixel */
"64 64 121 2 ",
"   c None",
".  c #47AC18",
"X  c #49AD1B",
"o  c #4EAF21",
"O  c #4FB022",
"+  c #52B125",
"@  c #55B32A",
"#  c #59B42E",
"$  c #5BB531",
"%  c #61B736",
"&  c #61B738",
"*  c #65B93C",
"=  c #6DBC45",
"-  c #6FBD48",
";  c #72BE4B",
":  c #74C04E",
">  c #76C151",
",  c #79C154",
"<  c #7EC45B",
"1  c #81C55E",
"2  c #84C762",
"3  c #85C866",
"4  c #88C867",
"5  c #8BCA6B",
"6  c #8FCC70",
"7  c #92CC73",
"8  c #97CF79",
"9  c #9AD17D",
"0  c #9ED282",
"q  c #A1D486",
"w  c #A4D68B",
"e  c #A8D78E",
"r  c #A9D790",
"t  c #ACD994",
"y  c #AEDA98",
"u  c #B2DB9C",
"i  c #B5DDA0",
"p  c #BADEA4",
"a  c #BBDFA8",
"s  c #BCE0A7",
"d  c #BDE0A9",
"f  c #C1E2AE",
"g  c #C5E4B3",
"h  c #C8E5B7",
"j  c #C8E5B8",
"k  c #CAE5B8",
"l  c #CAE6B8",
"z  c #CAE6BA",
"x  c #CBE7BB",
"c  c #CCE7BD",
"v  c #CAE6BA",
"b  c #CFE8BF",
"n  c #CEE8BE",
"m  c #CFE8C0",
"M  c #CFE9C0",
"N  c #CFE9C1",
"B  c #D0E8C0",
"V  c #D2EAC5",
"C  c #D3EAC5",
"Z  c #D2EAC4",
"A  c #D5EBC8",
"S  c #D7ECCA",
"D  c #D7ECCB",
"F  c #D8ECCC",
"G  c #D8EDCC",
"H  c #D9EDCD",
"J  c #DCEECF",
"K  c #DAEDCD",
"L  c #DDEFD2",
"P  c #DEEFD2",
"I  c #DDEFD1",
"U  c #DEF0D4",
"Y  c #DFF0D4",
"T  c #E0F0D6",
"R  c #E1F1D6",
"E  c #E1F1D7",
"W  c #E1F1D7",
"Q  c #E3F1D9",
"!  c #E4F2DA",
"~  c #E6F3DD",
"^  c #E5F3DC",
"/  c #E8F4E0",
"(  c #E9F4E1",
")  c #EAF5E2",
"_  c #EAF5E3",
"`  c #ECF6E5",
"'  c #EDF6E6",
"]  c #EBF6E3",
"[  c #EEF7E8",
"{  c #EFF7EA",
"}  c #F0F7EA",
"|  c #F0F7E9",
" . c #F0F8EB",
".. c #F1F8EC",
"X. c #F3F9EE",
"o. c #F3F9EF",
"O. c #F4F9EF",
"+. c #F1F8EB",
"@. c #F4FAF0",
"#. c #F5FAF1",
"$. c #F6FAF2",
"%. c #F6FBF2",
"&. c #F6FAF2",
"*. c #F8FBF5",
"=. c #F8FCF5",
"-. c #F9FCF6",
";. c #F9FCF7",
":. c #FAFCF7",
">. c #F9FCF6",
",. c #FAFCF8",
"<. c #FBFDF9",
"1. c #FBFDFA",
"2. c #FCFDFA",
"3. c #FDFEFB",
"4. c #FDFEFC",
"5. c #FEFEFD",
"6. c #FEFFFD",
"7. c #FEFFFE",
"8. c #FFFFFE",
"9. c white",
"0. c #FFFFFF",
/* pixels */
"                                                      $ $ $ $ $ $ $ $ $ $                                                       ",
"                                              $ $ $ $ $ $ $ $ $ $ $ $ $ $ $ $ $ $                                               ",
"                                        $ $ $ $ $ $ $ $ $ $ $ $ $ $ $ $ $ $ $ $ $ $ $ $                                         ",
"                                    $ $ $ $ $ $ $ $ $ $ $ $ $ $ $ $ $ $ $ $ $ $ $ $ $ $ $ $                                     ",
"                                $ $ $ $ $ $ $ $ $ $ $ $ $ $ $ $ $ $ $ $ $ $ $ $ $ $ $ $ $ $ $ $                                 ",
"                            $ $ $ $ $ $ $ $ $ $ $ $ $ $ $ $ $ $ $ $ $ $ $ $ $ $ $ $ $ $ $ $ $ $ $ $                             ",
"                          $ $ $ $ $ $ $ $ $ $ $ $ $ $ $ $ $ $ $ $ $ $ $ $ $ $ $ $ $ $ $ $ $ $ $ $ $ $                           ",
"                        $ $ $ $ $ $ $ $ $ $ $ $ $ $ $ $ $ $ $ $ $ + @ $ $ $ $ $ $ $ $ $ $ $ $ $ $ $ $ $                         ",
"                    $ $ $ $ $ $ $ $ $ $ $ $ $ $ $ $ $ $ $ $ $ @ + 5 1 + $ $ $ $ $ $ $ $ $ $ $ $ $ $ $ $ $ $                     ",
"                  $ $ $ $ $ $ $ $ $ $ $ $ $ $ $ $ $ $ $ $ @ + , g 8.#.3 + $ $ $ $ $ $ $ $ # $ $ $ $ $ $ $ $ $                   ",
"                $ $ $ $ $ $ $ $ $ $ $ $ $ $ $ $ $ $ $ # + = s 1.8.8.8.:.5 + $ $ $ $ $ $ # @ # $ $ $ $ $ $ $ $ $                 ",
"                $ $ $ $ $ $ $ $ $ $ $ $ $ $ $ $ $ # + * t #.8.8.8.8.8.8.8.9 + # $ $ $ @ & p 2 @ $ $ $ $ $ $ $ $                 ",
"              $ $ $ $ $ $ $ $ $ $ $ $ $ $ $ $ # + $ 0 ` 8.8.8.8.8.8.8.8.8.8.w + # $ # @ z 8.p o $ $ $ $ $ $ $ $ $               ",
"            $ $ $ $ $ $ $ $ $ $ $ $ $ $ $ $ + @ 7 T 8.8.8.8.8.8.8.8.8.8.8.8.8.u + # @ a 8.8.a + $ $ $ $ $ $ $ $ $ $             ",
"          $ $ $ $ $ $ $ $ $ $ $ $ $ $ $ @ @ 2 S 8.8.8.8.8.8.8.8.8.8.8.8.8.8.8.8.a @ r 8.8.8.p + $ $ $ $ $ $ $ $ $ $ $           ",
"          $ $ $ $ $ $ $ $ $ $ $ $ $ @ + > g 8.8.8.8.8.8.8.8.8.8.8.8.8.8.8.8.8.8.8.L 8.8.8.8.p + $ $ $ $ $ $ $ $ $ $ $           ",
"        $ $ $ $ $ $ $ $ $ $ $ $ # o = p :.8.8.8.8.8.8.8.8.8.8.8.8.8.8.8.8.8.8.8.8.8.8.8.8.8.i + $ $ $ $ $ $ $ $ $ $ $ $         ",
"        $ $ $ $ $ $ $ $ $ $ $ + * r o.8.8.8.8.8.8.8.8.8.8.8.8.8.8.8.8.8.8.8.8.8.8.8.8.8.8.8.y O $ $ $ $ $ $ $ $ $ $ $ $         ",
"      $ $ $ $ $ $ $ $ $ $ @ # 8 / 8.8.8.8.8.8.8.8.8.8.8.8.8.8.~ 8 F 8.8.8.8.8.8.8.8.8.8.8.8.y O $ $ $ $ $ $ $ $ $ $ $ $ $       ",
"      $ $ $ $ $ $ $ $ $ # - n 8.8.8.8.8.8.8.8.8.8.8.8.8.8.' 0 $ O $ x 8.8.8.8.8.8.8.8.8.8.8.r + $ $ $ $ $ $ $ $ $ $ $ $ $       ",
"    $ $ $ $ $ $ $ $ $ $ @ 5 8.8.8.8.8.8.8.8.8.8.8.8.8.o.t * O # $ # # p 1.8.8.8.8.8.8.8.8.8.w + $ $ $ $ $ $ $ $ $ $ $ $ $ $     ",
"    $ $ $ $ $ $ $ $ $ $ $ + r 8.8.8.8.8.8.8.8.8.8.:.p = + # $ $ $ $ @ @ Y 8.8.8.8.8.8.8.8.8.w O # # + + # $ $ $ $ $ $ $ $ $     ",
"  $ $ $ $ $ $ $ $ $ $ $ $ # @ g 8.8.8.8.8.8.8.8.g ; + @ $ $ $ $ $ $ + p 8.8.8.8.8.8.8.8.8.8.8 o & = 1 8 , # $ $ $ $ $ $ $ $ $   ",
"  $ $ $ $ $ $ $ $ $ $ $ $ $ $ $ L 8.8.8.8.8.c < + @ $ $ $ $ $ $ $ + w 8.8.8.8.8.8.8.8.8.8.8.Y F ` :.8.8.p + $ $ $ $ $ $ $ $ $   ",
"  $ $ $ $ $ $ $ $ $ $ $ $ $ $ X , *.8.1.S 4 @ @ $ $ $ $ $ $ $ $ + 9 8.8.8.8.8.8.8.8.8.8.8.8.8.8.8.8.8.8.p + $ $ $ $ $ $ $ $ $   ",
"  $ $ $ $ $ $ $ $ $ $ $ $ + # 7 L 8.8.( % o # $ $ $ $ $ $ $ $ @ , 8.8.8.8.8.@.! V a r 5 w 8.8.8.8.8.8.8.p + $ $ $ $ $ $ $ $ $   ",
"$ $ $ $ $ $ $ $ $ # $ @ @ 4 F 8.8.8.8.8.a @ # $ $ $ $ $ $ $ $ # = u u 0 4 > * $ @ + + o < 8.8.8.8.8.8.8.a + $ $ $ $ $ $ $ $ $ $ ",
"$ $ $ $ $ $ $ $ $ @ + 1 m 8.8.8.8.8.8.8.8.q + $ $ $ $ $ $ $ $ $ # + + + + @ # $ $ $ $ + 7 8.8.8.8.8.8.8.u + $ $ $ $ $ $ $ $ $ $ ",
"$ $ $ $ $ $ $ # + ; g 8.8.8.8.8.8.8.8.8.8.1.3 + # $ $ $ $ $ $ $ $ $ $ $ $ $ $ $ $ $ $ + 7 8.8.8.8.8.8.8.y O $ $ $ $ $ $ $ $ $ $ ",
"$ $ $ $ $ $ # $ t :.8.8.8.8.8.8.8.8.8.8.8.8.{ = @ $ $ $ $ $ $ $ $ $ $ $ $ $ $ $ $ $ $ + 8 8.8.8.8.8.8.8.y O $ $ $ $ $ $ $ $ $ $ ",
"$ $ $ $ $ $ + u 8.8.8.8.8.8.8.8.8.8.8.8.8.8.8.I $ @ $ $ $ $ $ $ $ $ $ $ $ $ $ $ $ $ $ + 9 8.8.8.8.8.8.8.r + $ $ $ $ $ $ $ $ $ $ ",
"$ $ $ $ $ $ # ; e z / 2.8.8.8.8.8.8.8.8.8.8.8.8.f @ $ $ $ $ $ $ $ $ $ $ $ $ $ $ $ $ $ + 9 8.8.8.8.8.8.8.w + $ $ $ $ $ $ $ $ $ $ ",
"$ $ $ $ $ $ $ # + @ % ; 8 o.8.8.8.8.8.8.8.8.8.8.8.0 + $ $ $ $ $ $ $ $ $ $ $ $ $ $ $ $ + w 8.8.8.8.8.8.8.w + $ $ $ $ $ $ $ $ $ $ ",
"$ $ $ $ $ $ $ $ $ $ $ + & #.8.8.8.8.8.8.8.8.8.8.8.;.< + $ $ $ $ $ $ $ $ $ $ $ $ $ $ $ O w 8.8.8.8.8.8.8.w + $ $ $ $ $ $ $ $ $ $ ",
"$ $ $ $ $ $ $ $ $ $ $ + 4 8.8.8.8.8.8.8.N w m ^ ;.8.g O $ $ $ $ $ $ $ $ # # $ $ $ $ $ + w 8.8.8.8.8.8.8.0 o $ $ $ $ $ $ $ $ $ $ ",
"$ $ $ $ $ $ $ $ $ $ $ + y 8.8.8.8.8.8.8.9 . @ $ - 5 > # $ $ $ $ $ $ $ $ $ - $ $ $ $ $ + y 8.8.8.8.8.8.8.0 + $ $ $ $ $ $ $ $ $ $ ",
"$ $ $ $ $ $ $ $ $ $ $ @ V 8.8.8.8.8.8.8.< @ $ $ # + # $ $ $ $ $ $ $ $ + t #.; # $ $ $ o y 8.8.8.8.8.8.8.8 + $ $ $ $ $ $ $ $ $ $ ",
"$ $ $ $ $ $ $ $ $ $ # * { 8.8.8.8.8.8.#.= # $ $ $ $ $ $ $ $ $ $ $ $ # * ..8.w O $ $ $ + y 8.8.8.8.8.8.8.8 + $ $ $ $ $ $ $ $ $ $ ",
"  $ $ $ $ $ $ $ $ $ + < 8.8.8.8.8.8.8.! + + $ $ $ $ $ $ $ $ $ $ $ $ + 0 8.8.S # $ $ $ o p 8.8.8.8.8.8.8.7 + $ $ $ $ $ $ $ $ $   ",
"  $ $ $ $ $ $ $ $ $ + w 8.8.8.8.8.8.8.:.p = o $ $ $ $ $ $ $ $ $ $ $ # Y 8.8.*.- @ + + % z 8.8.8.8.8.8.8.7 + $ $ $ $ $ $ $ $ $   ",
"  $ $ $ $ $ $ $ $ $ + j 8.8.8.8.8.8.8.8.8.' 8 @ + $ $ $ $ $ $ $ $ + 2 8.8.8.8.0 # 5 g  .8.8.8.8.8.8.8.8.5 + $ $ $ $ $ $ $ $ $   ",
"  $ $ $ $ $ $ $ $ # $ ' 8.8.8.8.8.8.8.8.8.8.8.N > + $ $ $ $ $ $ $ + g 8.8.8.8.{ / 8.8.8.8.8.8.8.8.8.8.8.3 + $ $ $ $ $ $ $ $ $   ",
"    $ $ $ $ $ $ $ # = 8.8.8.8.8.8.8.8.8.8.8.8.8.:.r $ + $ $ $ $ # - :.8.8.8.8.8.8.8.8.8.8.8.8.8.8.8.8.8.3 + $ $ $ $ $ $ $ $     ",
"    $ $ $ $ $ $ $ $ $ 0 @.8.8.8.8.8.8.8.8.8.8.8.8.8.! 4 + # $ $ o t 8.8.8.8.8.8.8.8.8.8.8.8.8.8.8.8.8.8.3 + $ $ $ $ $ $ $ $     ",
"    $ $ $ $ $ $ $ $ $ O - g 8.8.8.8.8.8.8.8.8.8.8.8.8.8.d = + # $ ` 8.8.8.8.8.8.8.8.8.8.8.8.8.8.8.8.8.8.< + $ $ $ $ $ $ $ $     ",
"      $ $ $ $ $ $ $ $ $ @ + 4 ! 8.8.8.8.8.8.8.8.8.8.8.8.8.{ 0 o 6 8.8.8.8.8.8.8.8.8.8.8.8.8.8.8.8.8.8.F = # $ $ $ $ $ $ $       ",
"      $ $ $ $ $ $ $ $ $ $ $ + $ w *.8.8.8.8.8.8.8.8.8.8.8.8.8.B L 8.8.8.8.8.8.8.8.8.8.8.8.8.8.:.C w > # $ $ $ $ $ $ $ $ $       ",
"        $ $ $ $ $ $ $ $ $ $ $ # + ; g 8.8.8.8.8.8.8.8.8.8.8.8.8.8.8.8.8.8.8.8.8.8.8.8.8.} j 8 - @ + @ $ $ $ $ $ $ $ $ $         ",
"        $ $ $ $ $ $ $ $ $ $ $ $ $ @ + 5 ! 8.8.8.8.8.8.8.8.8.8.8.8.8.8.8.8.8.8.8.8.1.f 4 * + + @ $ $ $ $ $ $ $ $ $ $ $ $         ",
"          $ $ $ $ $ $ $ $ $ $ $ $ $ $ + $ t #.8.8.8.8.8.8.8.8.8.V 7 ` 8.8.8.8.8.8.1.- o # $ $ $ $ $ $ $ $ $ $ $ $ $ $           ",
"            $ $ $ $ $ $ $ $ $ $ $ $ $ $ $ + : z 8.8.8.8.8.8.8.8.7 . * p 8.8.8.8.8.8.w + $ $ $ $ $ $ $ $ $ $ $ $ $ $             ",
"            $ $ $ $ $ $ $ $ $ $ $ $ $ $ $ $ @ @ 6 ~ 8.8.8.8.8./ $ # @ + 2 I 8.8.8.8.F # $ $ $ $ $ $ $ $ $ $ $ $ $ $             ",
"              $ $ $ $ $ $ $ $ $ $ $ $ $ $ $ $ $ + & t :.8.8.8.t + $ $ $ + $ w #.8.8.1.; @ $ $ $ $ $ $ $ $ $ $ $ $               ",
"                $ $ $ $ $ $ $ $ $ $ $ $ $ $ $ $ $ # + > n 8.1.= # $ $ $ $ # + - g 8.8.w + $ $ $ $ $ $ $ $ $ $ $                 ",
"                  $ $ $ $ $ $ $ $ $ $ $ $ $ $ $ $ $ $ @ @ 7 9 @ $ $ $ $ $ $ $ @ @ 2 z 5 @ $ $ $ $ $ $ $ $ $ $                   ",
"                    $ $ $ $ $ $ $ $ $ $ $ $ $ $ $ $ $ $ $ + + $ $ $ $ $ $ $ $ $ # @ @ # $ $ $ $ $ $ $ $ $ $                     ",
"                      $ $ $ $ $ $ $ $ $ $ $ $ $ $ $ $ $ $ $ $ $ $ $ $ $ $ $ $ $ $ $ $ $ $ $ $ $ $ $ $ $ $                       ",
"                        $ $ $ $ $ $ $ $ $ $ $ $ $ $ $ $ $ $ $ $ $ $ $ $ $ $ $ $ $ $ $ $ $ $ $ $ $ $ $ $                         ",
"                            $ $ $ $ $ $ $ $ $ $ $ $ $ $ $ $ $ $ $ $ $ $ $ $ $ $ $ $ $ $ $ $ $ $ $ $                             ",
"                              $ $ $ $ $ $ $ $ $ $ $ $ $ $ $ $ $ $ $ $ $ $ $ $ $ $ $ $ $ $ $ $ $ $                               ",
"                                  $ $ $ $ $ $ $ $ $ $ $ $ $ $ $ $ $ $ $ $ $ $ $ $ $ $ $ $ $ $                                   ",
"                                      $ $ $ $ $ $ $ $ $ $ $ $ $ $ $ $ $ $ $ $ $ $ $ $ $ $                                       ",
"                                            $ $ $ $ $ $ $ $ $ $ $ $ $ $ $ $ $ $ $ $                                             ",
"                                                  $ $ $ $ $ $ $ $ $ $ $ $ $ $                                                   "
};
