/* XPM */
static char *_b8ca75c213e42d3a3a50a4b60d73273IjF7ZtjXLi7pg85S[] = {
/* columns rows colors chars-per-pixel */
"16 16 18 1 ",
"  c None",
". c #5BB531",
"X c #6AB93C",
"o c #78BE48",
"O c #84C255",
"+ c #90C761",
"@ c #9CCC6F",
"# c #A6D07C",
"$ c #B1D58A",
"% c #BADA97",
"& c #C3DFA5",
"* c #CDE4B3",
"= c #D5E8C1",
"- c #DEEDCE",
"; c #E7F2DB",
": c #EFF6E8",
"> c #F8FBF4",
", c white",
/* pixels */
"     ......     ",
"   ..........   ",
"  ....X%:O.O..  ",
" ....#>,,>*-... ",
" ..+:,,,>,,-... ",
"...$,,*o#,,;$o..",
"..X&,#..==%,,+..",
".O>,,>o....,,+..",
"..X,,;=..X.,,+..",
"..O,,+..O;X,,+..",
"..@,,>%.*,,,,+..",
" ..$>,,:,,,,=o. ",
" ...X*,,-,;X... ",
"  ....+*.+=...  ",
"   ..........   ",
"     ......     "
};
